<!DOCTYPE svg PUBLIC "-//W3C//DTD SVG 1.1//EN" "http://www.w3.org/Graphics/SVG/1.1/DTD/svg11.dtd">
<!-- Uploaded to: SVG Repo, www.svgrepo.com, Transformed by: SVG Repo Mixer Tools -->
<svg height="800px" width="800px" version="1.1" id="Layer_1" xmlns="http://www.w3.org/2000/svg" xmlns:xlink="http://www.w3.org/1999/xlink" viewBox="0 0 512 512" xml:space="preserve" fill="#000000">
<g id="SVGRepo_bgCarrier" stroke-width="0"/>
<g id="SVGRepo_tracerCarrier" stroke-linecap="round" stroke-linejoin="round"/>
<g id="SVGRepo_iconCarrier"> <path style="fill:#e8e8e8;" d="M9.253,83.277v296.096c0,27.256,22.095,49.349,49.349,49.349s49.349-22.094,49.349-49.349 c0,27.256,22.095,49.349,49.349,49.349s49.349-22.094,49.349-49.349c0,27.256,22.095,49.349,49.349,49.349 c27.256,0,49.349-22.094,49.349-49.349c0,27.256,22.094,49.349,49.349,49.349c27.256,0,49.349-22.094,49.349-49.349 c0,27.256,22.094,49.349,49.349,49.349c27.256,0,49.349-22.094,49.349-49.349V83.277H9.253z"/> <path style="fill:#bfbfbf;" d="M206.651,293.012v86.361c0,27.256,22.095,49.349,49.349,49.349c27.256,0,49.349-22.094,49.349-49.349 v-86.361H206.651z"/> <path style="fill:#e8e8e8;" d="M256,293.012v135.711c27.256,0,49.349-22.094,49.349-49.349v-86.361H256z"/> <path style="fill:#f5f5f5;" d="M9.253,293.012v86.361c0,27.256,22.095,49.349,49.349,49.349s49.349-22.094,49.349-49.349v-86.361 H9.253z"/> <path style="fill:#e8e8e8;" d="M107.952,293.012v86.361c0,27.256,22.095,49.349,49.349,49.349s49.349-22.094,49.349-49.349v-86.361 H107.952z"/> <path style="fill:#c9c9c9;" d="M305.349,293.012v86.361c0,27.256,22.094,49.349,49.349,49.349c27.256,0,49.349-22.094,49.349-49.349 v-86.361H305.349z"/> <path style="fill:#a3a3a3;" d="M404.048,293.012v86.361c0,27.256,22.094,49.349,49.349,49.349c27.256,0,49.349-22.094,49.349-49.349 v-86.361H404.048z"/> <path style="fill:#bfbfbf;" d="M58.602,206.651v86.361c0,27.256,22.095,49.349,49.349,49.349s49.349-22.094,49.349-49.349v-86.361 H58.602z"/> <path style="fill:#f5f5f5;" d="M157.301,206.651v86.361c0,27.256,22.095,49.349,49.349,49.349c27.256,0,49.349-22.094,49.349-49.349 v-86.361H157.301z"/> <path style="fill:#a3a3a3;" d="M256,206.651v86.361c0,27.256,22.094,49.349,49.349,49.349s49.349-22.094,49.349-49.349v-86.361H256z "/> <g> <path style="fill:#e8e8e8;" d="M354.699,206.651v86.361c0,27.256,22.094,49.349,49.349,49.349 c27.256,0,49.349-22.094,49.349-49.349v-86.361H354.699z"/> <path style="fill:#e8e8e8;" d="M9.253,206.651v135.711c27.254,0,49.349-22.094,49.349-49.349v-86.361H9.253z"/> </g> <path style="fill:#c9c9c9;" d="M502.747,206.651h-49.349v86.361c0,27.256,22.094,49.349,49.349,49.349V206.651z"/> <path style="fill:#f5f5f5;" d="M9.253,120.289v86.361C9.253,233.906,31.348,256,58.602,256s49.349-22.094,49.349-49.349v-86.361 H9.253z"/> <path style="fill:#e8e8e8;" d="M107.952,120.289v86.361c0,27.256,22.095,49.349,49.349,49.349s49.349-22.094,49.349-49.349v-86.361 H107.952z"/> <path style="fill:#bfbfbf;" d="M206.651,120.289v86.361C206.651,233.906,228.746,256,256,256c27.256,0,49.349-22.094,49.349-49.349 v-86.361H206.651z"/> <path style="fill:#c9c9c9;" d="M305.349,120.289v86.361c0,27.256,22.094,49.349,49.349,49.349c27.256,0,49.349-22.094,49.349-49.349 v-86.361H305.349z"/> <path style="fill:#a3a3a3;" d="M404.048,120.289v86.361c0,27.256,22.094,49.349,49.349,49.349c27.256,0,49.349-22.094,49.349-49.349 v-86.361H404.048z"/> <path style="fill:#e8e8e8;" d="M256,120.289V256c27.256,0,49.349-22.094,49.349-49.349v-86.361H256z"/> <path style="fill:#bfbfbf;" d="M58.602,83.277v37.012c0,27.256,22.095,49.349,49.349,49.349s49.349-22.094,49.349-49.349V83.277 H58.602z"/> <path style="fill:#f5f5f5;" d="M157.301,83.277v37.012c0,27.256,22.095,49.349,49.349,49.349c27.256,0,49.349-22.094,49.349-49.349 V83.277H157.301z"/> <path style="fill:#a3a3a3;" d="M256,83.277v37.012c0,27.256,22.094,49.349,49.349,49.349s49.349-22.094,49.349-49.349V83.277H256z"/> <g> <path style="fill:#e8e8e8;" d="M354.699,83.277v37.012c0,27.256,22.094,49.349,49.349,49.349c27.256,0,49.349-22.094,49.349-49.349 V83.277H354.699z"/> <path style="fill:#e8e8e8;" d="M9.253,83.277v86.361c27.254,0,49.349-22.094,49.349-49.349V83.277H9.253z"/> </g> <path style="fill:#c9c9c9;" d="M502.747,83.277h-49.349v37.012c0,27.256,22.094,49.349,49.349,49.349V83.277z"/> <path style="fill:#2E2D31;" d="M502.747,74.024H9.253C4.143,74.024,0,78.166,0,83.277v296.096c0,32.313,26.29,58.602,58.602,58.602 c20.705,0,38.922-10.803,49.349-27.058c10.428,16.256,28.645,27.058,49.349,27.058s38.922-10.803,49.349-27.058 c10.428,16.256,28.645,27.058,49.349,27.058s38.923-10.803,49.349-27.058c10.426,16.256,28.645,27.058,49.349,27.058 s38.923-10.803,49.349-27.058c10.426,16.256,28.645,27.058,49.349,27.058c32.313,0,58.602-26.29,58.602-58.602V83.277 C512,78.166,507.858,74.024,502.747,74.024z M404.048,333.108c-22.11,0-40.096-17.987-40.096-40.096v-28.497 c16.815-2.68,31.255-12.537,40.096-26.321c8.841,13.783,23.282,23.641,40.096,26.321v28.497 C444.145,315.122,426.158,333.108,404.048,333.108z M305.349,333.108c-22.11,0-40.096-17.987-40.096-40.096v-28.497 c16.815-2.68,31.255-12.537,40.096-26.321c8.841,13.783,23.282,23.641,40.096,26.321v28.497 C345.446,315.122,327.459,333.108,305.349,333.108z M206.651,333.108c-22.109,0-40.096-17.987-40.096-40.096v-28.497 c16.813-2.68,31.254-12.537,40.096-26.321c8.842,13.783,23.283,23.641,40.096,26.321v28.497 C246.747,315.122,228.759,333.108,206.651,333.108z M107.952,333.108c-22.109,0-40.096-17.987-40.096-40.096v-28.497 c16.813-2.68,31.255-12.537,40.096-26.321c8.841,13.783,23.283,23.641,40.096,26.321v28.497 C148.048,315.122,130.06,333.108,107.952,333.108z M18.506,178.154c16.813-2.68,31.254-12.537,40.096-26.321 c8.842,13.783,23.283,23.641,40.096,26.321v28.497c0,22.11-17.988,40.096-40.096,40.096s-40.096-17.987-40.096-40.096V178.154z M444.145,120.289c0,22.11-17.987,40.096-40.096,40.096c-22.11,0-40.096-17.987-40.096-40.096V92.53h80.193V120.289z M354.699,246.747c-22.11,0-40.096-17.987-40.096-40.096v-28.497c16.815-2.68,31.255-12.537,40.096-26.321 c8.841,13.783,23.282,23.641,40.096,26.321v28.497C394.795,228.76,376.809,246.747,354.699,246.747z M256,246.747 c-22.109,0-40.096-17.987-40.096-40.096v-28.497c16.813-2.68,31.254-12.537,40.096-26.321c8.841,13.783,23.282,23.641,40.096,26.321 v28.497C296.096,228.76,278.11,246.747,256,246.747z M157.301,246.747c-22.109,0-40.096-17.987-40.096-40.096v-28.497 c16.813-2.68,31.255-12.537,40.096-26.321c8.842,13.783,23.283,23.641,40.096,26.321v28.497 C197.398,228.76,179.41,246.747,157.301,246.747z M345.446,120.289c0,22.11-17.987,40.096-40.096,40.096 c-22.11,0-40.096-17.987-40.096-40.096V92.53h80.193V120.289z M246.747,120.289c0,22.11-17.988,40.096-40.096,40.096 s-40.096-17.987-40.096-40.096V92.53h80.193V120.289z M148.048,120.289c0,22.11-17.988,40.096-40.096,40.096 s-40.096-17.987-40.096-40.096V92.53h80.193V120.289z M49.349,264.515v28.497c0,18.925-13.182,34.817-30.843,39.007V249.33 C26.866,257.189,37.519,262.631,49.349,264.515z M462.651,264.515c11.83-1.884,22.484-7.326,30.843-15.186v82.689 c-17.661-4.19-30.843-20.082-30.843-39.007V264.515z M453.398,246.747c-22.11,0-40.096-17.987-40.096-40.096v-28.497 c16.815-2.68,31.255-12.537,40.096-26.321c8.841,13.783,23.282,23.641,40.096,26.321v28.497 C493.494,228.76,475.507,246.747,453.398,246.747z M493.494,159.296c-17.661-4.19-30.843-20.081-30.843-39.007V92.53h30.843V159.296 z M49.349,92.53v27.759c0,18.925-13.182,34.817-30.843,39.007V92.53H49.349z M58.602,419.47c-22.109,0-40.096-17.987-40.096-40.096 v-28.497c16.813-2.68,31.254-12.537,40.096-26.321c8.842,13.783,23.283,23.641,40.096,26.32v28.497 C98.699,401.483,80.711,419.47,58.602,419.47z M157.301,419.47c-22.109,0-40.096-17.987-40.096-40.096v-28.497 c16.813-2.68,31.255-12.537,40.096-26.321c8.842,13.783,23.283,23.641,40.096,26.32v28.497 C197.398,401.483,179.41,419.47,157.301,419.47z M256,419.47c-22.109,0-40.096-17.987-40.096-40.096v-28.497 c16.813-2.68,31.254-12.537,40.096-26.321c8.841,13.783,23.282,23.641,40.096,26.32v28.497 C296.096,401.483,278.11,419.47,256,419.47z M354.699,419.47c-22.11,0-40.096-17.987-40.096-40.096v-28.497 c16.815-2.68,31.255-12.537,40.096-26.321c8.841,13.783,23.282,23.641,40.096,26.32v28.497 C394.795,401.483,376.809,419.47,354.699,419.47z M453.398,419.47c-22.11,0-40.096-17.987-40.096-40.096v-28.497 c16.815-2.68,31.255-12.537,40.096-26.321c8.841,13.783,23.282,23.641,40.096,26.32v28.497 C493.494,401.483,475.507,419.47,453.398,419.47z"/> </g>
</svg>