<?xml version="1.0" encoding="iso-8859-1"?>
<!-- Uploaded to: SVG Repo, www.svgrepo.com, Generator: SVG Repo Mixer Tools -->
<svg fill="#000000" height="800px" width="800px" version="1.1" id="Layer_1" xmlns="http://www.w3.org/2000/svg" xmlns:xlink="http://www.w3.org/1999/xlink" 
	 viewBox="0 0 511.999 511.999" xml:space="preserve">
<g>
	<g>
		<path d="M457.072,28.135c-1.749-1.547-4.079-2.27-6.397-1.984c-31.096,3.829-62.613,3.828-93.667,0
			c-33.597-4.142-66.544-12.737-97.927-25.546c-1.974-0.807-4.187-0.807-6.161,0c-31.382,12.809-64.33,21.404-97.925,25.546
			c-31.057,3.826-62.571,3.826-93.669,0c-4.79-0.59-9.149,3.27-9.149,8.091v200.023c0,4.504,3.649,8.153,8.153,8.153
			c4.504,0,8.153-3.649,8.153-8.153V43.354c29.441,2.934,59.168,2.596,88.506-1.02c33.928-4.182,67.223-12.722,99.011-25.389
			c31.789,12.667,65.083,21.208,99.013,25.389c29.335,3.614,59.064,3.956,88.505,1.02v267.436
			c-16.761,37.221-39.409,71.022-67.336,100.49c-34.018,35.896-74.438,64.048-120.182,83.716
			c-45.743-19.668-86.163-47.82-120.182-83.716c-27.927-29.468-50.574-63.269-67.336-100.49v-33.047
			c0-4.504-3.649-8.153-8.153-8.153c-4.504,0-8.153,3.649-8.153,8.153v34.786c0,1.141,0.24,2.27,0.703,3.313
			c17.583,39.539,41.506,75.421,71.103,106.652c36.364,38.373,79.722,68.275,128.864,88.876c2.002,0.839,4.302,0.839,6.304,0
			c49.143-20.601,92.5-50.503,128.864-88.876c29.598-31.231,53.52-67.114,71.103-106.652c0.464-1.044,0.703-2.172,0.703-3.313
			V34.242C459.824,31.907,458.821,29.683,457.072,28.135z"/>
	</g>
</g>
<g>
	<g>
		<path d="M419.059,147.84c-4.504,0-8.153,3.649-8.153,8.153v147.62c-14.93,31.425-34.57,60.09-58.396,85.232
			c-27.686,29.215-60.139,52.863-96.51,70.329c-36.371-17.467-68.825-41.115-96.51-70.329
			c-23.826-25.141-43.465-53.807-58.396-85.232V77.882c2.371,0.039,4.736,0.06,7.084,0.06c17.586,0,35.351-1.09,52.798-3.241
			C193.353,70.71,225.304,63.025,256,51.843c30.696,11.181,62.647,18.867,95.022,22.858c17.441,2.151,35.205,3.241,52.799,3.241
			c2.347,0,4.712-0.021,7.084-0.06v34.628c0,4.504,3.649,8.153,8.153,8.153s8.153-3.649,8.153-8.153V69.511
			c0-2.213-0.9-4.331-2.493-5.868c-1.593-1.536-3.745-2.339-5.955-2.28c-4.975,0.179-10.003,0.271-14.943,0.271
			c-16.93,0-34.023-1.049-50.805-3.118c-32.115-3.959-63.798-11.699-94.173-23.004c-1.835-0.682-3.854-0.682-5.688,0
			c-30.373,11.305-62.058,19.046-94.173,23.004c-16.79,2.069-33.883,3.118-50.805,3.118c-4.941,0-9.968-0.091-14.943-0.271
			c-2.232-0.062-4.361,0.744-5.955,2.28c-1.593,1.537-2.493,3.655-2.493,5.868V305.44c0,1.196,0.263,2.377,0.77,3.459
			c15.765,33.647,36.657,64.318,62.097,91.163c29.971,31.627,65.265,57.037,104.899,75.522c1.093,0.51,2.269,0.764,3.446,0.764
			c1.177,0,2.354-0.254,3.446-0.764c39.634-18.485,74.928-43.895,104.9-75.522c25.439-26.845,46.331-57.516,62.096-91.163
			c0.507-1.082,0.77-2.263,0.77-3.459V155.993C427.212,151.49,423.563,147.84,419.059,147.84z"/>
	</g>
</g>
<g>
	<g>
		<path d="M329.218,200.879l-69.572-34.786c-2.295-1.149-4.998-1.149-7.293,0l-69.572,34.786c-2.761,1.382-4.507,4.204-4.507,7.292
			v113.054c0,4.504,3.649,8.153,8.153,8.153h52.179c4.504,0,8.153-3.649,8.153-8.153v-52.722h18.48v52.722
			c0.001,4.504,3.65,8.153,8.154,8.153h52.179c4.504,0,8.153-3.649,8.153-8.153V208.171
			C333.725,205.083,331.98,202.26,329.218,200.879z M317.419,313.072h-35.873V260.35c0-4.504-3.649-8.153-8.153-8.153h-34.786
			c-4.504,0-8.153,3.649-8.153,8.153v52.722h-35.873v-99.861L256,182.501l61.419,30.709V313.072z"/>
	</g>
</g>
<g>
	<g>
		<path d="M355.566,183.621l-95.661-52.179c-2.435-1.327-5.373-1.327-7.809,0l-95.661,52.179c-3.953,2.156-5.409,7.108-3.252,11.062
			c2.156,3.951,7.106,5.411,11.062,3.253L256,147.886l91.756,50.049c1.24,0.676,2.577,0.998,3.897,0.997
			c2.887,0,5.684-1.537,7.165-4.249C360.974,190.729,359.519,185.778,355.566,183.621z"/>
	</g>
</g>
</svg>