<?xml version="1.0" encoding="UTF-8" standalone="no"?>
<!-- Uploaded to: SVG Repo, www.svgrepo.com, Transformed by: SVG Repo Mixer Tools -->

<svg
   height="800px"
   width="800px"
   version="1.1"
   id="Layer_1"
   viewBox="0 0 512 512"
   xml:space="preserve"
   fill="#000000"
   sodipodi:docname="icon-home.svg"
   inkscape:version="1.2.2 (732a01da63, 2022-12-09)"
   xmlns:inkscape="http://www.inkscape.org/namespaces/inkscape"
   xmlns:sodipodi="http://sodipodi.sourceforge.net/DTD/sodipodi-0.dtd"
   xmlns="http://www.w3.org/2000/svg"
   xmlns:svg="http://www.w3.org/2000/svg"><defs
   id="defs64"><inkscape:path-effect
     effect="fill_between_many"
     method="originald"
     linkedpaths="#path1333,0,1|#g1331,0,1"
     id="path-effect1348" /><inkscape:path-effect
     effect="fill_between_many"
     method="originald"
     linkedpaths="#g1331,0,1|#path1333,0,1"
     id="path-effect1352" /></defs><sodipodi:namedview
   id="namedview62"
   pagecolor="#505050"
   bordercolor="#eeeeee"
   borderopacity="1"
   inkscape:showpageshadow="0"
   inkscape:pageopacity="0"
   inkscape:pagecheckerboard="0"
   inkscape:deskcolor="#505050"
   showgrid="false"
   inkscape:zoom="0.51875"
   inkscape:cx="360.48193"
   inkscape:cy="320.96386"
   inkscape:window-width="1920"
   inkscape:window-height="991"
   inkscape:window-x="-9"
   inkscape:window-y="-9"
   inkscape:window-maximized="1"
   inkscape:current-layer="Layer_1" />

<g
   id="SVGRepo_bgCarrier"
   stroke-width="0" />

<g
   id="SVGRepo_tracerCarrier"
   stroke-linecap="round"
   stroke-linejoin="round" />



<g
   id="g1331"
   inkscape:transform-center-x="-2.9715627"
   inkscape:transform-center-y="-1.6224366"
   transform="matrix(0.98563377,0.16889661,-0.21186095,1.2363618,50.754152,64.884865)"
   style="fill:#666666;stroke:#000000" /><g
   aria-label="ALPHA"
   transform="matrix(4.6637035,0,0,4.7415855,-2007.2657,-1425.5677)"
   id="text15748"
   style="font-weight:bold;font-size:32.088px;line-height:0;font-family:'Leelawadee UI';-inkscape-font-specification:'Leelawadee UI, Bold';text-align:center;letter-spacing:0px;white-space:pre;shape-inside:url(#rect15750);display:inline;fill:#000000;stroke-width:2.29122;stroke-linecap:round;stroke-linejoin:round;stop-color:#000000" /><path
   id="path109232"
   style="font-weight:300;font-size:22.0285px;line-height:0;font-family:'Leelawadee UI';-inkscape-font-specification:'Leelawadee UI, Light';text-align:center;letter-spacing:5.89104px;white-space:pre;fill:#000000;stroke-width:0.0919163;stroke-linecap:round;stroke-linejoin:round"
   d="m 487.45444,392.47784 q 0.63612,0.40844 1.39592,0.74122 0.77747,0.31767 1.57261,0.54457 0.81283,0.21178 1.62564,0.33278 0.81281,0.1059 1.55494,0.1059 2.88019,0 4.31145,-0.953 1.43126,-0.95298 1.43126,-2.73795 0,-0.86223 -0.33573,-1.49756 -0.33573,-0.65045 -1.04252,-1.21013 -0.70679,-0.5597 -1.78466,-1.10427 -1.07786,-0.5597 -2.54445,-1.25553 -1.62564,-0.75633 -2.79185,-1.42191 -1.14854,-0.68072 -1.89067,-1.37655 -0.72446,-0.71095 -1.07786,-1.5278 -0.33573,-0.81685 -0.33573,-1.8606 0,-1.31603 0.65379,-2.35979 0.65378,-1.04375 1.76699,-1.76984 1.11319,-0.74121 2.59746,-1.13451 1.50194,-0.3933 3.19825,-0.3933 2.9862,0 5.00058,0.71097 v 2.22364 q -2.24408,-1.10426 -5.26563,-1.10426 -1.13087,0 -2.13805,0.24203 -0.98951,0.2269 -1.74933,0.68071 -0.74212,0.4538 -1.18388,1.1345 -0.42407,0.66559 -0.42407,1.55807 0,0.8471 0.28273,1.4673 0.30038,0.60508 0.93649,1.14964 0.65379,0.54457 1.69632,1.08914 1.06018,0.52943 2.57979,1.22526 1.59029,0.72609 2.77416,1.42193 1.18388,0.6807 1.96136,1.43704 0.79515,0.74121 1.18388,1.58833 0.38875,0.83196 0.38875,1.86059 0,1.42192 -0.61846,2.51105 -0.61844,1.074 -1.73165,1.78496 -1.11319,0.71097 -2.65047,1.074 -1.53727,0.36305 -3.37495,0.36305 -0.60078,0 -1.43125,-0.0907 -0.83049,-0.0757 -1.67864,-0.24201 -0.84815,-0.15129 -1.62562,-0.36305 -0.75982,-0.2269 -1.2369,-0.48407 z m -15.75609,3.17663 -3.81668,-6.21712 q -0.56544,-0.92273 -1.09553,-1.54293 -0.53011,-0.6202 -1.09554,-0.98324 -0.56544,-0.37818 -1.21922,-0.52944 -0.63611,-0.1664 -1.43126,-0.1664 h -2.79184 v 9.43913 h -2.35008 v -21.69185 h 7.29765 q 1.43125,0 2.75649,0.36305 1.34291,0.36303 2.38543,1.074 1.04252,0.71096 1.66098,1.78496 0.63611,1.074 0.63611,2.49593 0,1.14963 -0.4064,2.11775 -0.40641,0.96811 -1.16623,1.72446 -0.74212,0.74122 -1.81998,1.27065 -1.0602,0.51432 -2.4031,0.77147 v 0.0605 q 0.51241,0.18152 0.9365,0.46893 0.42408,0.2874 0.81281,0.69584 0.40641,0.40841 0.79514,0.93785 0.38874,0.52944 0.81281,1.21014 l 4.25845,6.71631 z M 460.24828,375.8081 v 8.5769 h 4.20543 q 1.27223,0 2.33243,-0.31766 1.06018,-0.31767 1.80232,-0.90762 0.7598,-0.58994 1.16621,-1.42191 0.42408,-0.83198 0.42408,-1.87573 0,-1.89085 -1.43127,-2.96486 -1.41358,-1.08912 -4.0994,-1.08912 z m -30.22773,19.84637 v -21.69185 h 12.35125 v 1.84548 h -10.00114 v 7.9567 h 9.259 v 1.81522 h -9.259 v 8.24411 h 10.56658 v 1.83034 z M 408.85748,375.8081 v 19.84637 h -2.35009 V 375.8081 h -7.29765 v -1.84548 h 16.96307 v 1.84548 z m -29.09683,0 v 19.84637 h -2.35009 V 375.8081 h -7.29765 v -1.84548 h 16.96307 v 1.84548 z m -23.17743,11.13333 q 0,9.09123 -9.32968,9.09123 -8.88794,0 -8.88794,-8.75844 v -13.3116 h 2.35009 v 13.13008 q 0,3.56993 1.67863,5.33976 1.67864,1.76985 5.19494,1.76985 6.64387,0 6.64387,-6.89784 v -13.34185 h 2.35009 z m -33.44362,7.2155 q -3.90503,1.87573 -8.26949,1.87573 -2.7565,0 -4.94756,-0.80174 -2.19107,-0.81684 -3.72835,-2.25389 -1.53728,-1.45217 -2.36776,-3.44891 -0.81282,-2.01187 -0.81282,-4.41703 0,-1.58832 0.38875,-3.05562 0.40641,-1.46731 1.16621,-2.75308 0.77747,-1.28578 1.89067,-2.32953 1.11321,-1.04376 2.54446,-1.80009 1.44893,-0.75635 3.18058,-1.16477 1.73165,-0.40843 3.72834,-0.40843 3.76368,0 6.71455,1.14965 v 2.22364 q -3.25126,-1.54294 -6.99727,-1.54294 -2.31475,0 -4.18776,0.72609 -1.873,0.72609 -3.19824,1.99674 -1.30757,1.27065 -2.03203,3.01024 -0.72447,1.72445 -0.74214,3.75145 -0.0177,2.01186 0.60078,3.72119 0.63611,1.6942 1.87301,2.93461 1.23688,1.2404 3.05687,1.93624 1.82,0.69583 4.20543,0.69583 3.21591,0 5.58368,-1.14965 v -6.61041 h -5.76038 v -1.83035 h 8.11047 z m -54.85407,1.49754 -3.07456,-2.61693 q -3.48097,2.99512 -8.37553,2.99512 -1.83765,0 -3.32193,-0.42357 -1.46659,-0.43867 -2.50911,-1.21013 -1.02487,-0.7866 -1.57263,-1.8606 -0.54775,-1.07401 -0.54775,-2.34466 0,-3.99348 5.81337,-6.38353 -2.79183,-2.93459 -2.79183,-5.14311 0,-1.08913 0.47707,-2.01186 0.4771,-0.92275 1.34292,-1.60345 0.86583,-0.6807 2.03204,-1.05888 1.18388,-0.3933 2.59747,-0.3933 1.30757,0 2.36775,0.3328 1.0602,0.33278 1.80234,0.92273 0.74212,0.58995 1.14853,1.4068 0.4064,0.81685 0.4064,1.78496 0,1.02862 -0.31805,1.87573 -0.31806,0.83197 -1.02485,1.57319 -0.70679,0.72608 -1.83766,1.37654 -1.11321,0.65045 -2.72116,1.3009 1.59029,1.43705 3.37494,2.96486 1.80232,1.5278 3.83437,3.22202 0.47708,-0.60508 0.86582,-1.33117 0.40641,-0.74121 0.68912,-1.54293 0.28272,-0.80173 0.44175,-1.6337 0.15902,-0.8471 0.19436,-1.66395 h 2.17339 q -0.0884,4.09937 -2.9862,7.4424 0.95417,0.80171 2.13805,1.80009 1.18389,0.98324 2.66815,2.23877 z m -11.46775,-12.67626 q 1.34291,-0.52945 2.2794,-1.05888 0.95418,-0.54457 1.55496,-1.11939 0.60078,-0.57481 0.8835,-1.21015 0.2827,-0.63533 0.2827,-1.34628 0,-0.66558 -0.2827,-1.21015 -0.26506,-0.55969 -0.74214,-0.95298 -0.4771,-0.40843 -1.11321,-0.6202 -0.63612,-0.22691 -1.37824,-0.22691 -0.9365,0 -1.69632,0.25716 -0.7598,0.25715 -1.28989,0.72609 -0.5301,0.4538 -0.83049,1.08913 -0.28272,0.63533 -0.28272,1.37654 0,1.78497 2.61515,4.29602 z m 7.03261,8.84918 q -2.10272,-1.76984 -4.02874,-3.43379 -1.90835,-1.67907 -3.72833,-3.3279 -2.54446,1.02863 -3.71069,2.23877 -1.1662,1.19503 -1.1662,2.78334 0,0.95299 0.4064,1.73958 0.42409,0.7866 1.16621,1.34629 0.74214,0.54456 1.78466,0.86223 1.0602,0.30253 2.33243,0.30253 3.99339,0 6.94426,-2.51105 z m -49.11137,2.32954 q -3.90504,1.87573 -8.2695,1.87573 -2.7565,0 -4.94757,-0.80174 -2.19105,-0.81684 -3.72834,-2.25389 -1.53728,-1.45217 -2.36775,-3.44891 -0.81281,-2.01187 -0.81281,-4.41703 0,-1.58832 0.38873,-3.05562 0.4064,-1.46731 1.1662,-2.75308 0.77748,-1.28578 1.89069,-2.32953 1.1132,-1.04376 2.54445,-1.80009 1.44894,-0.75635 3.18057,-1.16477 1.73165,-0.40843 3.72835,-0.40843 3.76368,0 6.71455,1.14965 v 2.22364 q -3.25125,-1.54294 -6.99727,-1.54294 -2.31475,0 -4.18775,0.72609 -1.87301,0.72609 -3.19825,1.99674 -1.30757,1.27065 -2.03203,3.01024 -0.72447,1.72445 -0.74214,3.75145 -0.0176,2.01186 0.60077,3.72119 0.63612,1.6942 1.87302,2.93461 1.23689,1.2404 3.05687,1.93624 1.82,0.69583 4.20544,0.69583 3.21592,0 5.58368,-1.14965 v -6.61041 h -5.76037 v -1.83035 h 8.11046 z m -37.31332,1.49754 -14.06521,-17.41096 q -0.26505,-0.3328 -0.53009,-0.68071 -0.24739,-0.34792 -0.40641,-0.6807 h -0.0884 q 0.0353,0.27228 0.0531,0.75633 0.0353,0.48407 0.0353,1.21015 v 16.80589 h -2.3501 v -21.69185 h 2.59747 l 13.83551,17.19919 q 0.31805,0.40843 0.56544,0.77147 0.26505,0.34792 0.47708,0.65045 h 0.0884 q -0.0706,-0.49918 -0.10596,-1.11938 -0.0353,-0.6202 -0.0353,-1.37654 v -16.12519 h 2.36777 v 21.69185 z m -33.62034,0 h -2.35009 v -21.69185 h 2.35009 z M 116.88193,375.8081 v 8.16847 h 9.25901 v 1.83035 h -9.25901 v 9.84755 h -2.35009 v -21.69185 h 12.35122 v 1.84548 z m -29.114505,20.22456 q -2.738835,0 -4.929904,-0.84712 -2.191052,-0.86222 -3.728329,-2.34465 -1.519616,-1.48243 -2.350105,-3.47917 -0.812813,-2.01187 -0.812813,-4.31115 0,-2.5413 0.812813,-4.64393 0.830489,-2.11774 2.403101,-3.61531 1.572629,-1.51268 3.85203,-2.34465 2.279417,-0.84711 5.19495,-0.84711 2.685823,0 4.823863,0.83198 2.138056,0.81685 3.639996,2.28415 1.501941,1.45218 2.297094,3.44891 0.812812,1.99675 0.812812,4.3414 0,2.46567 -0.795153,4.58342 -0.777476,2.10263 -2.314753,3.64558 -1.5196,1.54293 -3.763681,2.42028 -2.226405,0.87737 -5.141921,0.87737 z m 0.194357,-20.60274 q -2.297077,0 -4.081739,0.75635 -1.766986,0.74121 -2.986205,2.02699 -1.219219,1.27065 -1.855334,2.9951 -0.61844,1.70933 -0.636116,3.64558 -0.01774,1.84546 0.547767,3.53966 0.583103,1.67908 1.73165,2.97999 1.166207,1.28577 2.933193,2.05725 1.766985,0.77147 4.134751,0.77147 2.367765,0 4.152411,-0.69583 1.802339,-0.71097 3.003881,-1.95137 1.201559,-1.25553 1.802322,-2.97998 0.618456,-1.72446 0.618456,-3.76658 0,-1.90598 -0.547767,-3.61531 -0.530091,-1.70933 -1.678637,-2.97998 -1.130871,-1.28578 -2.897857,-2.02699 -1.766986,-0.75635 -4.240776,-0.75635 z m -37.277981,20.60274 q -2.738836,0 -4.929888,-0.84712 -2.191068,-0.86222 -3.728345,-2.34465 -1.519617,-1.48243 -2.350089,-3.47917 -0.812813,-2.01187 -0.812813,-4.31115 0,-2.5413 0.812813,-4.64393 0.830472,-2.11774 2.403101,-3.61531 1.572613,-1.51268 3.85203,-2.34465 2.279401,-0.84711 5.194933,-0.84711 2.685823,0 4.82388,0.83198 2.138056,0.81685 3.63998,2.28415 1.50194,1.45218 2.297093,3.44891 0.812813,1.99675 0.812813,4.3414 0,2.46567 -0.795153,4.58342 -0.77746,2.10263 -2.314753,3.64558 -1.5196,1.54293 -3.763681,2.42028 -2.226389,0.87737 -5.141921,0.87737 z m 0.194373,-20.60274 q -2.297093,0 -4.081739,0.75635 -1.766986,0.74121 -2.986221,2.02699 -1.219219,1.27065 -1.855335,2.9951 -0.618439,1.70933 -0.636115,3.64558 -0.01758,1.84546 0.547767,3.53966 0.583103,1.67908 1.73165,2.97999 1.166206,1.28577 2.933192,2.05725 1.766986,0.77147 4.134752,0.77147 2.367765,0 4.152427,-0.69583 1.802322,-0.71097 3.003865,-1.95137 1.201559,-1.25553 1.802338,-2.97998 0.61844,-1.72446 0.61844,-3.76658 0,-1.90598 -0.547767,-3.61531 -0.530091,-1.70933 -1.678638,-2.97998 -1.13087,-1.28578 -2.897856,-2.02699 -1.766986,-0.75635 -4.24076,-0.75635 z m -26.905775,20.22455 -3.816693,-6.21712 q -0.565444,-0.92273 -1.095535,-1.54293 -0.53009,-0.6202 -1.095534,-0.98324 -0.565443,-0.37818 -1.219219,-0.52944 -0.636115,-0.1664 -1.431268,-0.1664 h -2.791832 v 9.43913 h -2.350089 v -21.69185 h 7.297653 q 1.431252,0 2.756496,0.36305 1.34292,0.36303 2.385442,1.074 1.042522,0.71096 1.660961,1.78496 0.636116,1.074 0.636116,2.49593 0,1.14963 -0.406407,2.11775 -0.406406,0.96811 -1.166206,1.72446 -0.742141,0.74122 -1.819999,1.27065 -1.060198,0.51432 -2.403101,0.77147 v 0.0605 q 0.512414,0.18152 0.936497,0.46893 0.424083,0.2874 0.812813,0.69584 0.406406,0.40841 0.795152,0.93785 0.38873,0.52944 0.812813,1.21014 l 4.258436,6.71631 z M 12.522318,375.8081 v 8.5769 h 4.205424 q 1.272231,0 2.332429,-0.31766 1.060182,-0.31767 1.802323,-0.90762 0.7598,-0.58994 1.166206,-1.42191 0.424083,-0.83198 0.424083,-1.87573 0,-1.89085 -1.431252,-2.96486 -1.413592,-1.08912 -4.099416,-1.08912 z M 501.83379,352.94867 H 476.1129 l -7.45325,-23.69887 h -37.26607 l -7.38017,23.69887 h -25.57472 l 38.14293,-106.53332 h 27.9861 z M 463.25241,310.82566 451.99955,275.0174 q -1.24223,-4.01172 -1.75369,-9.58355 h -0.5846 q -0.36517,4.68032 -1.82677,9.28634 l -11.39903,36.10547 z m -77.52805,42.12301 h -23.67497 v -43.38598 h -43.40401 v 43.38598 H 295.04354 V 246.41535 h 23.60184 v 42.49447 h 43.40401 v -42.49447 h 23.67497 z M 226.72238,316.2489 v 36.69977 H 203.1205 V 246.41535 h 36.97379 q 39.60436,0 39.60436,33.95098 0,16.04686 -11.39902,26.00186 -11.32595,9.88071 -30.32438,9.88071 z m 0,-51.40941 v 33.20812 h 9.27998 q 18.85223,0 18.85223,-16.78976 0,-16.41836 -18.85223,-16.41836 z m -37.70455,88.10918 h -62.4024 V 246.41535 h 23.60183 v 87.06907 h 38.80057 z m -75.48209,0 H 87.81486 L 80.361609,329.2498 H 43.09554 l -7.380171,23.69887 H 10.140645 L 48.283584,246.41535 H 76.269676 Z M 74.954371,310.82566 63.701508,275.0174 q -1.242224,-4.01172 -1.753693,-9.58355 H 61.36322 q -0.365168,4.68032 -1.826773,9.28634 l -11.399024,36.10547 z m 243.171799,-194.84677 -54.74646,27.07854 22.97359,11.35744 31.77842,-15.72111 179.17051,88.57113 a 10.183122,10.183122 0 0 0 13.64303,-4.6127 10.183122,10.183122 0 0 0 -4.61825,-13.64304 z M 192.2832,115.9668 5.6386719,209.02539 A 10.1831,10.1831 0 0 0 1.0703125,222.68164 10.1831,10.1831 0 0 0 14.726563,227.25 l 177.593747,-88.54492 179.1543,88.56054 A 10.1831,10.1831 0 0 0 385.11523,222.65039 10.1831,10.1831 0 0 0 380.5,209.00977 Z m 60.04985,43.83564" /></svg>
