<?xml version="1.0" encoding="UTF-8" standalone="no"?>
<!-- Created with Inkscape (http://www.inkscape.org/) -->

<svg
   width="800"
   height="500"
   viewBox="0 0 211.66666 132.29167"
   version="1.1"
   id="svg400"
   inkscape:version="1.2.2 (732a01da63, 2022-12-09)"
   sodipodi:docname="Logo WIP.svg"
   xml:space="preserve"
   inkscape:export-filename="..\..\Websites\alpharoofings.com\assets\img\brand\alpha-logo-primary.svg"
   inkscape:export-xdpi="300"
   inkscape:export-ydpi="300"
   xmlns:inkscape="http://www.inkscape.org/namespaces/inkscape"
   xmlns:sodipodi="http://sodipodi.sourceforge.net/DTD/sodipodi-0.dtd"
   xmlns="http://www.w3.org/2000/svg"
   xmlns:svg="http://www.w3.org/2000/svg"><sodipodi:namedview
     id="namedview402"
     pagecolor="#505050"
     bordercolor="#eeeeee"
     borderopacity="1"
     inkscape:showpageshadow="0"
     inkscape:pageopacity="0"
     inkscape:pagecheckerboard="0"
     inkscape:deskcolor="#505050"
     inkscape:document-units="mm"
     showgrid="false"
     inkscape:zoom="1.0456808"
     inkscape:cx="416.47509"
     inkscape:cy="321.79993"
     inkscape:window-width="1920"
     inkscape:window-height="991"
     inkscape:window-x="-9"
     inkscape:window-y="-9"
     inkscape:window-maximized="1"
     inkscape:current-layer="layer1"
     showguides="true"><inkscape:grid
       type="xygrid"
       id="grid9175"
       spacingx="1.3229167"
       spacingy="1.3229167" /></sodipodi:namedview><defs
     id="defs397"><rect
       x="197.95715"
       y="346.18597"
       width="574.74518"
       height="126.23355"
       id="rect15750" /><rect
       x="197.95715"
       y="346.18597"
       width="574.74518"
       height="126.23355"
       id="rect16738" /></defs><g
     inkscape:label="Layer 1"
     inkscape:groupmode="layer"
     id="layer1"><g
       aria-label="ROOFING &amp; GUTTERS"
       transform="matrix(0.57727099,0,0,0.4941902,-174.57095,-58.863053)"
       id="text16736"
       style="font-weight:300;font-size:22.0285px;line-height:0;font-family:'Leelawadee UI';-inkscape-font-specification:'Leelawadee UI, Light';text-align:center;letter-spacing:5.89104px;white-space:pre;shape-inside:url(#rect16738);display:inline;fill:#1a365d;stroke-width:0.0604724;stroke-linecap:round;stroke-linejoin:round;stop-color:#000000"><g
         id="g109268"><g
           id="g104696"
           transform="matrix(1.6297436,0,0,1.903728,313.25234,147.04997)"><path
             d="M 14.02291,41.489446 82.046078,7.5742061 150.65453,41.489446 M 104.46837,19.700637"
             style="fill:none;fill-opacity:0.709804;stroke:#1a365d;stroke-width:7.607;stroke-linecap:round;stroke-linejoin:miter;stroke-miterlimit:100;stroke-dasharray:none;stroke-opacity:1;paint-order:fill markers stroke;stop-color:#000000"
             id="path93643" /><path
             id="path93666"
             style="color:#000000;fill:#1a365d;stroke-linecap:round;stroke-miterlimit:100;-inkscape-stroke:none;paint-order:fill markers stroke"
             d="m 129.04277,3.3320964 -20.44836,10.1141116 8.58087,4.242118 11.86956,-5.871993 66.92201,33.082218 a 3.8034999,3.8034999 0 0 0 5.09581,-1.722892 3.8034999,3.8034999 0 0 0 -1.72496,-5.095813 z" /></g><g
           aria-label="ALPHA"
           transform="matrix(2.8389168,0,0,3.3715604,-891.9671,-942.74152)"
           id="text15748"
           style="font-weight:bold;font-size:32.088px;font-family:'Leelawadee UI';-inkscape-font-specification:'Leelawadee UI, Bold';text-align:center;letter-spacing:0px;white-space:pre;shape-inside:url(#rect15750);display:inline;fill:#1a365d;stroke-width:2.29122;stroke-linecap:round;stroke-linejoin:round;stop-color:#000000"><path
             d="m 454.7462,375.08896 h -5.51512 l -1.59814,-4.99809 h -7.99066 l -1.58247,4.99809 h -5.48378 l 8.17868,-22.46787 h 6.00083 z m -8.27269,-8.88374 -2.41286,-7.55196 q -0.26636,-0.84607 -0.37603,-2.02117 h -0.12535 q -0.0783,0.98708 -0.3917,1.95849 l -2.4442,7.61464 z"
             id="path109193" /><path
             d="m 470.93121,375.08896 h -13.38044 v -22.46787 h 5.06075 v 18.36286 h 8.31969 z"
             id="path109195" /><path
             d="m 479.01589,367.34898 v 7.73998 h -5.06076 v -22.46787 h 7.92799 q 8.49204,0 8.49204,7.16026 0,3.38428 -2.4442,5.48379 -2.42853,2.08384 -6.50221,2.08384 z m 0,-10.84224 v 7.00359 h 1.98983 q 4.04233,0 4.04233,-3.54096 0,-3.46263 -4.04233,-3.46263 z"
             style="word-spacing:0px"
             id="path109197" /><path
             d="m 513.10939,375.08896 h -5.07643 v -9.1501 h -9.30677 v 9.1501 h -5.06075 v -22.46787 h 5.06075 v 8.96208 h 9.30677 v -8.96208 h 5.07643 z"
             id="path109199" /><path
             d="m 538.00579,375.08896 h -5.51512 l -1.59814,-4.99809 h -7.99066 l -1.58247,4.99809 h -5.48378 l 8.17868,-22.46787 h 6.00083 z m -8.27269,-8.88374 -2.41286,-7.55196 q -0.26636,-0.84607 -0.37603,-2.02117 h -0.12535 q -0.0783,0.98708 -0.3917,1.95849 l -2.4442,7.61464 z"
             id="path109201" /></g><path
           d="m 344.49997,352.26 -2.32332,-4.42076 q -0.3442,-0.65612 -0.66688,-1.09712 -0.32268,-0.441 -0.66688,-0.69914 -0.3442,-0.26891 -0.74217,-0.37647 -0.38722,-0.11832 -0.87125,-0.11832 h -1.69946 V 352.26 h -1.43056 v -15.42425 h 4.44227 q 0.87124,0 1.67795,0.25815 0.81747,0.25814 1.45208,0.76368 0.63461,0.50554 1.01107,1.26922 0.38722,0.76368 0.38722,1.77476 0,0.81746 -0.24739,1.50585 -0.24739,0.68839 -0.7099,1.2262 -0.45176,0.52705 -1.10788,0.90351 -0.64537,0.36571 -1.46283,0.54856 v 0.043 q 0.31192,0.12907 0.57007,0.33344 0.25815,0.20436 0.49478,0.49478 0.24739,0.29041 0.48403,0.66687 0.23663,0.37647 0.49478,0.86049 l 2.59222,4.77571 z m -6.96996,-14.112 v 6.09871 h 2.55995 q 0.77444,0 1.41981,-0.22588 0.64536,-0.22588 1.09712,-0.64537 0.46251,-0.41949 0.7099,-1.01107 0.25815,-0.59159 0.25815,-1.33376 0,-1.34451 -0.87124,-2.1082 -0.86049,-0.77443 -2.49542,-0.77443 z"
           id="path109204" /><path
           d="m 360.75989,352.52891 q -1.6672,0 -3.00095,-0.60235 -1.33376,-0.61309 -2.26954,-1.66719 -0.92503,-1.0541 -1.43056,-2.47391 -0.49478,-1.43056 -0.49478,-3.06549 0,-1.80702 0.49478,-3.30212 0.50553,-1.50585 1.46283,-2.57071 0.95729,-1.07561 2.34483,-1.66719 1.38753,-0.60235 3.16229,-0.60235 1.63493,0 2.93642,0.59159 1.30149,0.58083 2.21575,1.62417 0.91427,1.03259 1.3983,2.45239 0.49478,1.41981 0.49478,3.087 0,1.75325 -0.48403,3.2591 -0.47326,1.4951 -1.40905,2.59223 -0.92502,1.09712 -2.29105,1.72097 -1.35526,0.62386 -3.13002,0.62386 z m 0.11832,-14.64982 q -1.3983,0 -2.48466,0.53781 -1.07561,0.52705 -1.81779,1.44132 -0.74217,0.90351 -1.12939,2.1297 -0.37646,1.21544 -0.38722,2.59223 -0.0107,1.31224 0.33344,2.51692 0.35495,1.19393 1.0541,2.11896 0.7099,0.91426 1.78551,1.46283 1.07561,0.54856 2.51693,0.54856 1.44132,0 2.52769,-0.49478 1.09712,-0.50554 1.82853,-1.38754 0.73142,-0.89276 1.09713,-2.11895 0.37646,-1.2262 0.37646,-2.67827 0,-1.35527 -0.33344,-2.57071 -0.32268,-1.21544 -1.02183,-2.11895 -0.68839,-0.91427 -1.764,-1.44132 -1.07561,-0.53781 -2.58146,-0.53781 z"
           id="path109206" /><path
           d="m 383.33365,352.52891 q -1.6672,0 -3.00096,-0.60235 -1.33375,-0.61309 -2.26953,-1.66719 -0.92503,-1.0541 -1.43057,-2.47391 -0.49478,-1.43056 -0.49478,-3.06549 0,-1.80702 0.49478,-3.30212 0.50554,-1.50585 1.46283,-2.57071 0.9573,-1.07561 2.34483,-1.66719 1.38754,-0.60235 3.1623,-0.60235 1.63493,0 2.93641,0.59159 1.30149,0.58083 2.21576,1.62417 0.91427,1.03259 1.3983,2.45239 0.49478,1.41981 0.49478,3.087 0,1.75325 -0.48403,3.2591 -0.47327,1.4951 -1.40905,2.59223 -0.92502,1.09712 -2.29105,1.72097 -1.35527,0.62386 -3.13002,0.62386 z m 0.11831,-14.64982 q -1.39829,0 -2.48466,0.53781 -1.07561,0.52705 -1.81778,1.44132 -0.74217,0.90351 -1.12939,2.1297 -0.37646,1.21544 -0.38722,2.59223 -0.0108,1.31224 0.33344,2.51692 0.35495,1.19393 1.0541,2.11896 0.7099,0.91426 1.78551,1.46283 1.07561,0.54856 2.51693,0.54856 1.44132,0 2.52768,-0.49478 1.09713,-0.50554 1.82854,-1.38754 0.73142,-0.89276 1.09712,-2.11895 0.37647,-1.2262 0.37647,-2.67827 0,-1.35527 -0.33344,-2.57071 -0.32268,-1.21544 -1.02183,-2.11895 -0.68839,-0.91427 -1.764,-1.44132 -1.07561,-0.53781 -2.58147,-0.53781 z"
           id="path109208" /><path
           d="m 401.0564,338.148 v 5.80829 h 5.6362 v 1.30149 h -5.6362 V 352.26 h -1.43056 v -15.42425 h 7.51851 v 1.31225 z"
           id="path109210" /><path
           d="m 417.44539,352.26 h -1.43056 v -15.42425 h 1.43056 z"
           id="path109212" /><path
           d="m 437.91096,352.26 -8.56186,-12.38027 q -0.16134,-0.23664 -0.32268,-0.48403 -0.15059,-0.24739 -0.24739,-0.48402 h -0.0538 q 0.0215,0.19361 0.0323,0.5378 0.0215,0.3442 0.0215,0.86049 V 352.26 h -1.43057 v -15.42425 h 1.58115 l 8.42203,12.22969 q 0.19361,0.29042 0.3442,0.54856 0.16134,0.24739 0.29041,0.46251 h 0.0538 q -0.043,-0.35495 -0.0645,-0.79595 -0.0215,-0.441 -0.0215,-0.9788 v -11.46601 h 1.44132 V 352.26 Z"
           id="path109214" /><path
           d="m 460.62454,351.19515 q -2.3771,1.33376 -5.03386,1.33376 -1.67795,0 -3.01171,-0.57008 -1.33375,-0.58083 -2.26954,-1.60266 -0.93578,-1.03258 -1.44131,-2.45239 -0.49478,-1.43056 -0.49478,-3.14078 0,-1.12939 0.23663,-2.17273 0.24739,-1.04335 0.7099,-1.95761 0.47327,-0.91427 1.15091,-1.65644 0.67763,-0.74218 1.54887,-1.27998 0.88201,-0.53781 1.9361,-0.82822 1.0541,-0.29042 2.26954,-0.29042 2.29105,0 4.08732,0.81747 v 1.58115 q -1.97912,-1.09713 -4.25942,-1.09713 -1.40905,0 -2.54919,0.5163 -1.14015,0.51629 -1.94686,1.4198 -0.79595,0.90351 -1.23695,2.14047 -0.441,1.22619 -0.45176,2.66751 -0.0107,1.43056 0.36571,2.646 0.38722,1.20468 1.14015,2.08669 0.75293,0.882 1.8608,1.37678 1.10788,0.49478 2.55996,0.49478 1.95761,0 3.39893,-0.81747 v -4.70041 h -3.50649 v -1.30149 h 4.93705 z"
           id="path109216" /><path
           d="m 493.21968,352.26 -1.87156,-1.8608 q -2.11896,2.12971 -5.0984,2.12971 -1.11863,0 -2.02215,-0.30118 -0.89275,-0.31192 -1.52736,-0.86048 -0.62386,-0.55932 -0.9573,-1.323 -0.33343,-0.76369 -0.33343,-1.6672 0,-2.83961 3.53875,-4.53908 -1.69946,-2.08668 -1.69946,-3.65707 0,-0.77444 0.29041,-1.43056 0.29042,-0.65613 0.81747,-1.14015 0.52705,-0.48402 1.23695,-0.75293 0.72066,-0.27966 1.58115,-0.27966 0.79595,0 1.44131,0.23664 0.64537,0.23663 1.09713,0.65612 0.45175,0.41949 0.69914,1.00032 0.24739,0.58083 0.24739,1.26922 0,0.73141 -0.19361,1.33376 -0.19361,0.59158 -0.62385,1.11863 -0.43024,0.51629 -1.11863,0.97881 -0.67764,0.46251 -1.65644,0.92502 0.96805,1.02183 2.05441,2.1082 1.09712,1.08636 2.33408,2.29105 0.29041,-0.43025 0.52705,-0.94654 0.24739,-0.52705 0.41948,-1.09712 0.1721,-0.57008 0.26891,-1.16166 0.0968,-0.60234 0.11831,-1.18317 h 1.323 q -0.0538,2.9149 -1.81778,5.292 0.58083,0.57007 1.30149,1.27998 0.72066,0.69914 1.62417,1.5919 z m -6.98071,-9.01361 q 0.81746,-0.37647 1.38753,-0.75293 0.58083,-0.38722 0.94654,-0.79595 0.36571,-0.40873 0.53781,-0.86049 0.17209,-0.45176 0.17209,-0.95729 0,-0.47327 -0.17209,-0.86049 -0.16135,-0.39798 -0.45176,-0.67763 -0.29042,-0.29042 -0.67764,-0.441 -0.38722,-0.16135 -0.83897,-0.16135 -0.57007,0 -1.03259,0.18286 -0.46251,0.18285 -0.78519,0.51629 -0.32269,0.32268 -0.50554,0.77444 -0.1721,0.45176 -0.1721,0.97881 0,1.26922 1.59191,3.05473 z m 4.28093,6.29232 q -1.27998,-1.25847 -2.4524,-2.44164 -1.16166,-1.19392 -2.26953,-2.36634 -1.54888,0.73142 -2.25879,1.5919 -0.7099,0.84974 -0.7099,1.97913 0,0.67763 0.24739,1.23695 0.25815,0.55932 0.7099,0.95729 0.45176,0.38722 1.08637,0.6131 0.64537,0.21512 1.41981,0.21512 2.43088,0 4.22715,-1.78551 z"
           id="path109218" /><path
           d="m 526.61077,351.19515 q -2.37709,1.33376 -5.03385,1.33376 -1.67795,0 -3.01171,-0.57008 -1.33376,-0.58083 -2.26954,-1.60266 -0.93578,-1.03258 -1.44132,-2.45239 -0.49478,-1.43056 -0.49478,-3.14078 0,-1.12939 0.23664,-2.17273 0.24739,-1.04335 0.7099,-1.95761 0.47327,-0.91427 1.1509,-1.65644 0.67764,-0.74218 1.54888,-1.27998 0.882,-0.53781 1.9361,-0.82822 1.0541,-0.29042 2.26954,-0.29042 2.29105,0 4.08732,0.81747 v 1.58115 q -1.97913,-1.09713 -4.25942,-1.09713 -1.40905,0 -2.5492,0.5163 -1.14014,0.51629 -1.94685,1.4198 -0.79595,0.90351 -1.23695,2.14047 -0.441,1.22619 -0.45176,2.66751 -0.0108,1.43056 0.36571,2.646 0.38722,1.20468 1.14015,2.08669 0.75292,0.882 1.8608,1.37678 1.10788,0.49478 2.55995,0.49478 1.95761,0 3.39893,-0.81747 v -4.70041 h -3.50649 v -1.30149 h 4.93705 z"
           id="path109220" /><path
           d="m 546.96877,346.06449 q 0,6.46442 -5.67922,6.46442 -5.41032,0 -5.41032,-6.22779 v -9.46537 h 1.43056 v 9.3363 q 0,2.53844 1.02183,3.7969 1.02183,1.25847 3.16229,1.25847 4.0443,0 4.0443,-4.90479 v -9.48688 h 1.43056 z"
           id="path109222" /><path
           d="m 561.07747,338.148 v 14.112 h -1.43056 v -14.112 h -4.44227 v -1.31225 h 10.32586 v 1.31225 z"
           id="path109224" /><path
           d="m 578.78946,338.148 v 14.112 h -1.43056 v -14.112 h -4.44227 v -1.31225 h 10.32586 v 1.31225 z"
           id="path109226" /><path
           d="m 591.67197,352.26 v -15.42425 h 7.51852 v 1.31225 h -6.08795 v 5.65771 h 5.63619 v 1.29073 h -5.63619 v 5.86207 h 6.43215 V 352.26 Z"
           id="path109228" /><path
           d="m 617.04232,352.26 -2.32331,-4.42076 q -0.3442,-0.65612 -0.66688,-1.09712 -0.32269,-0.441 -0.66688,-0.69914 -0.3442,-0.26891 -0.74217,-0.37647 -0.38722,-0.11832 -0.87125,-0.11832 h -1.69946 V 352.26 h -1.43056 v -15.42425 h 4.44227 q 0.87124,0 1.67795,0.25815 0.81746,0.25814 1.45207,0.76368 0.63461,0.50554 1.01108,1.26922 0.38722,0.76368 0.38722,1.77476 0,0.81746 -0.24739,1.50585 -0.24739,0.68839 -0.70991,1.2262 -0.45175,0.52705 -1.10787,0.90351 -0.64537,0.36571 -1.46283,0.54856 v 0.043 q 0.31192,0.12907 0.57007,0.33344 0.25815,0.20436 0.49478,0.49478 0.24739,0.29041 0.48402,0.66687 0.23664,0.37647 0.49478,0.86049 l 2.59223,4.77571 z m -6.96995,-14.112 v 6.09871 h 2.55995 q 0.77444,0 1.41981,-0.22588 0.64536,-0.22588 1.09712,-0.64537 0.46251,-0.41949 0.7099,-1.01107 0.25815,-0.59159 0.25815,-1.33376 0,-1.34451 -0.87125,-2.1082 -0.86048,-0.77443 -2.49541,-0.77443 z"
           id="path109230" /><path
           d="m 626.63346,350.00122 q 0.38722,0.29042 0.84973,0.52705 0.47327,0.22588 0.95729,0.38722 0.49479,0.15059 0.98957,0.23663 0.49478,0.0753 0.94653,0.0753 1.75325,0 2.62449,-0.67764 0.87125,-0.67763 0.87125,-1.94685 0,-0.6131 -0.20437,-1.06486 -0.20437,-0.46251 -0.63461,-0.86048 -0.43024,-0.39798 -1.08637,-0.7852 -0.65612,-0.39798 -1.54887,-0.89276 -0.98957,-0.5378 -1.69947,-1.01107 -0.69915,-0.48403 -1.1509,-0.97881 -0.441,-0.50553 -0.65612,-1.08636 -0.20437,-0.58083 -0.20437,-1.323 0,-0.93578 0.39798,-1.67796 0.39797,-0.74217 1.07561,-1.25846 0.67763,-0.52705 1.58114,-0.80671 0.91427,-0.27966 1.94686,-0.27966 1.81778,0 3.04398,0.50554 v 1.58115 q -1.36603,-0.7852 -3.20532,-0.7852 -0.68839,0 -1.30149,0.1721 -0.60234,0.16134 -1.06486,0.48403 -0.45175,0.32268 -0.72066,0.8067 -0.25814,0.47327 -0.25814,1.10788 0,0.60234 0.1721,1.04334 0.18285,0.43025 0.57007,0.81747 0.39798,0.38722 1.03259,0.77444 0.64536,0.37646 1.57039,0.87124 0.96805,0.51629 1.6887,1.01108 0.72066,0.48402 1.19393,1.02182 0.48403,0.52705 0.72066,1.1294 0.23664,0.59158 0.23664,1.323 0,1.01107 -0.37647,1.78551 -0.37646,0.76368 -1.0541,1.26922 -0.67763,0.50554 -1.61341,0.76368 -0.93578,0.25815 -2.05442,0.25815 -0.36571,0 -0.87124,-0.0645 -0.50554,-0.0538 -1.02183,-0.17209 -0.51629,-0.10757 -0.98956,-0.25815 -0.46252,-0.16134 -0.75293,-0.3442 z"
           id="path109232" /></g></g></g></svg>
